<svg version="1.2" xmlns="http://www.w3.org/2000/svg" viewBox="0 0 864 146" width="864" height="146">
	<title>connectior-logo-svg</title>
	<defs>
		<linearGradient id="g1" x2="1" gradientUnits="userSpaceOnUse" gradientTransform="matrix(864,0,0,872.762,0,72.546)">
			<stop offset="0" stop-color="#c924d3" stop-opacity=".24"/>
			<stop offset="1" stop-color="#246dd3" stop-opacity=".28"/>
		</linearGradient>
	</defs>
	<style>
		.s0 { fill: #ffffff } 
		.s1 { fill: url(#g1) } 
		.s2 { fill: #246dd3 } 
	</style>
	<g id="g8">
		<path id="rect18" class="s0" d="m185.1-363.8h493.8c24.3 0 48.3 4.8 70.8 14.2 22.5 9.4 42.9 23.2 60.1 40.5 17.2 17.4 30.8 38 40.1 60.7 9.3 22.7 14.1 47 14.1 71.6v498.7c0 24.6-4.8 48.9-14.1 71.6-9.3 22.7-22.9 43.3-40.1 60.7-17.2 17.3-37.6 31.1-60.1 40.5-22.5 9.4-46.5 14.2-70.8 14.2h-493.8c-24.3 0-48.3-4.8-70.8-14.2-22.5-9.4-42.9-23.2-60.1-40.5-17.2-17.4-30.8-38-40.1-60.7-9.3-22.7-14.1-47-14.1-71.6v-498.7c0-24.6 4.8-48.9 14.1-71.6 9.3-22.7 22.9-43.3 40.1-60.7 17.2-17.3 37.6-31.1 60.1-40.5 22.5-9.4 46.5-14.2 70.8-14.2z"/>
		<path id="path23" class="s1" d="m185.1-363.8h493.8c24.3 0 48.3 4.8 70.8 14.2 22.5 9.4 42.9 23.2 60.1 40.5 17.2 17.4 30.8 38 40.1 60.7 9.3 22.7 14.1 47 14.1 71.6v498.7c0 24.6-4.8 48.9-14.1 71.6-9.3 22.7-22.9 43.3-40.1 60.7-17.2 17.3-37.6 31.1-60.1 40.5-22.5 9.4-46.5 14.2-70.8 14.2h-493.8c-24.3 0-48.3-4.8-70.8-14.2-22.5-9.4-42.9-23.2-60.1-40.5-17.2-17.4-30.8-38-40.1-60.7-9.3-22.7-14.1-47-14.1-71.6v-498.7c0-24.6 4.8-48.9 14.1-71.6 9.3-22.7 22.9-43.3 40.1-60.7 17.2-17.3 37.6-31.1 60.1-40.5 22.5-9.4 46.5-14.2 70.8-14.2z"/>
		<g id="g14">
			<path id="rect11" class="s2" d="m119.8 127.5h-5.9c-3.9 0.1-7.1-3.1-7.1-7v-45.9c0-3.9 3.1-7 7-7.1h6c3.9 0 7 3.2 7 7.1v45.9c0 3.9-3.1 7-7 7z"/>
			<path id="path14" class="s2" d="m116.8 127.5l-10-19.2c-18.4-0.7-19.7-9.3-20-34.2 0-3.6-2.9-6.5-6.5-6.5h-6.9c-3.6 0-6.6 3-6.6 6.6 0.3 27.7 3.7 53.4 50 53.3z"/>
		</g>
		<g id="g17">
			<path id="path16" class="s2" d="m73.9 17.5h5.9c3.9 0 7 3.2 7 7.1v49.5c0 3.9-3.1 7-7 7h-5.9c-3.9 0-7.1-3.1-7.1-7v-49.5c0-3.9 3.2-7.1 7.1-7.1z"/>
			<path id="path17" class="s2" d="m76.8 17.5l10 19.3c18.5 0.7 19.7 14.1 20 39.9 0 3.6 2.9 6.3 6.5 6.1l6.9-0.5c3.7-0.2 6.7-3.4 6.6-7.1-0.2-28.2-3.6-57.7-50-57.7z"/>
		</g>
		<path id="path11" class="s2" d="m56.8 17.5c-27.6 0-50 22.4-50 50 0 27.7 22.4 50 50 50 10 0 32.3 0 32.3 0l-7.5-19.9c-10 0-20.5-0.1-24.8-0.1-16.5 0-30-13.4-30-30 0-16.5 13.5-30 30-30h20v-20z"/>
	</g>
	<path id="Connectior" class="s2" aria-label="Connectior"  d="m201 125.2q-51.2 0-51.2-49.2 0-24.6 13.4-37.1 13.5-12.6 38.8-12.6 11.8 0 22.3 2.6v14.9q-10.5-2.6-21-2.6-17.5 0-26 8.3-8.5 8.2-8.5 26.2 0 12.4 3.8 20.1 3.8 7.6 11.2 11.1 7.4 3.4 18.6 3.4 11 0 21.9-3.2v14.8q-10.5 3.3-23.3 3.3zm64.9 0.1q-10.9 0-18.8-4.1-7.9-4.1-12.3-12.3-4.3-8.3-4.3-20.4 0-18.1 9.3-27.4 9.3-9.3 26.1-9.3 16.9 0 26.1 9.2 9.3 9.3 9.3 27.5 0 12-4.4 20.3-4.3 8.2-12.2 12.4-8 4.1-18.8 4.1zm0-13.7q8.7 0 13.2-5.4 4.5-5.4 4.5-17.6 0-12.4-4.5-17.7-4.5-5.4-13.2-5.4-8.7 0-13.2 5.3-4.4 5.4-4.4 17.6 0 12.3 4.4 17.8 4.5 5.4 13.2 5.4zm50.3 12.4v-71.1h14.6l1.1 7.4h0.9q4.5-4.1 10.4-6.3 5.9-2.2 12.7-2.2 11.9 0 18.8 6.9 6.9 6.8 6.9 21.5v43.8h-17.7v-42.9q0-7.6-3.4-10.9-3.2-3.2-9.6-3.2-4.8 0-9.3 1.8-4.6 1.8-7.7 5.5v49.7zm83.2 0v-71.1h14.6l1.2 7.4h0.9q4.4-4.1 10.4-6.3 5.9-2.2 12.6-2.2 12 0 18.9 6.9 6.9 6.8 6.9 21.5v43.8h-17.8v-42.9q0-7.6-3.3-10.9-3.2-3.2-9.6-3.2-4.8 0-9.4 1.8-4.5 1.8-7.6 5.5v49.7zm144.6-34.9v4.5h-47.4q0.3 6.8 2.8 10.8 2.6 4 7.8 5.8 5.2 1.9 13.8 1.9 8.5 0 19-2.5v13.1q-10.9 2.6-21.6 2.6-20.1 0-29.8-8.9-9.7-8.8-9.7-27.9 0-11.8 4-20 3.9-8.2 11.4-12.5 7.5-4.2 18.1-4.2 15.4 0 23.5 9.6 8.1 9.5 8.1 27.7zm-31.8-26q-7.6 0-11.5 4.8-3.9 4.8-4.2 15.4h30.9q-0.2-10.6-4-15.4-3.8-4.8-11.2-4.8zm79.6 62.2q-18.3 0-27.9-9.2-9.6-9.2-9.6-27.5 0-18.4 10.1-27.6 10.2-9.2 29.6-9.2 9.3 0 16.9 1.9v14q-7.9-1.7-15-1.7-12.1 0-17.8 5.3-5.6 5.4-5.6 17.1 0 11.9 5.3 17.3 5.4 5.4 16.2 5.4 3.8 0 7.8-0.7 4-0.6 9.1-2v14q-8.6 2.9-19.1 2.9zm69.5-14.5q3.5 0 8.4-1v14q-6.5 1.5-13.1 1.5-26.7 0-26.7-26v-32.3h-12.9v-14.1h12.9l3.1-25.4h14.6v25.4h21.5v14.1h-21.5v29.2q0 8 3.3 11.3 3.2 3.3 10.4 3.3zm38 13.2h-17.7v-71.1h17.7zm-8.8-83.3q-5.6 0-8.5-2.4-2.7-2.4-2.7-6.9 0-4.5 2.7-6.9 2.9-2.4 8.5-2.4 5.6 0 8.3 2.4 2.8 2.4 2.8 6.9 0 4.5-2.8 6.9-2.7 2.4-8.3 2.4zm59 84.6q-10.9 0-18.8-4.1-7.9-4.1-12.3-12.3-4.3-8.3-4.3-20.4 0-18.1 9.3-27.4 9.3-9.3 26.1-9.3 16.9 0 26.1 9.2 9.3 9.3 9.3 27.5 0 12-4.4 20.3-4.3 8.2-12.2 12.4-8 4.1-18.8 4.1zm0-13.7q8.7 0 13.2-5.4 4.5-5.4 4.5-17.6 0-12.4-4.5-17.7-4.5-5.4-13.2-5.4-8.7 0-13.2 5.3-4.4 5.3-4.4 17.6 0 12.3 4.4 17.8 4.5 5.4 13.2 5.4zm50.3 12.4v-71.1h14.5l1.4 9h0.9q3.4-4.8 8.8-7.3 5.5-2.6 11.8-2.6 3.4 0 6.4 0.5v16q-3.1-0.6-7.3-0.6-5.2 0-10.5 2.1-5.2 2-8.3 5.8v48.2z"/>
</svg>